<?xml version="1.0" encoding="utf-8"?>
<!-- Generator: Adobe Illustrator 16.0.0, SVG Export Plug-In . SVG Version: 6.00 Build 0)  -->
<!DOCTYPE svg PUBLIC "-//W3C//DTD SVG 1.1//EN" "http://www.w3.org/Graphics/SVG/1.1/DTD/svg11.dtd">
<svg version="1.1" id="Layer_1" xmlns="http://www.w3.org/2000/svg" xmlns:xlink="http://www.w3.org/1999/xlink" x="0px" y="0px"
	 width="95.222px" height="152.141px" viewBox="0 0 95.222 152.141" enable-background="new 0 0 95.222 152.141"
	 xml:space="preserve">
<rect x="26.945" y="23.49" display="none" fill="#2B0707" stroke="#FFFFFF" stroke-miterlimit="10" width="788" height="567"/>
<path id="XMLID_69_" display="none" fill="#FFFFFF" d="M8.016,137.289L56.176,9.301h6.999L15.014,137.289H8.016z"/>
<path id="XMLID_65_" fill="#FFFFFF" d="M89.796,7.533v106.922H67.622v-6.931c-4.852,5.613-12.127,9.009-22.036,9.009
	c-19.403,0-35.341-17.047-35.341-39.081c0-22.037,16.007-39.083,35.341-39.083c9.909,0,17.185,3.396,22.036,9.008V20.353
	L89.796,7.533z M67.622,77.453c0-11.089-7.415-18.087-17.602-18.087S32.42,66.296,32.42,77.453c0,11.087,7.415,18.085,17.601,18.085
	C60.207,95.538,67.622,88.609,67.622,77.453z"/>
</svg>
