<?xml version="1.0" encoding="utf-8"?>
<!-- Generator: Adobe Illustrator 16.0.0, SVG Export Plug-In . SVG Version: 6.00 Build 0)  -->
<!DOCTYPE svg PUBLIC "-//W3C//DTD SVG 1.1//EN" "http://www.w3.org/Graphics/SVG/1.1/DTD/svg11.dtd">
<svg version="1.1" id="Layer_1" xmlns="http://www.w3.org/2000/svg" xmlns:xlink="http://www.w3.org/1999/xlink" x="0px" y="0px"
	 width="228.222px" height="152.141px" viewBox="95.222 0 228.222 152.141" enable-background="new 95.222 0 228.222 152.141"
	 xml:space="preserve">
<rect x="26.945" y="23.49" display="none" fill="#2B0707" stroke="#FFFFFF" stroke-miterlimit="10" width="788" height="567"/>
<path id="XMLID_73_" fill="#FFFFFF" d="M182.305,40.518v70.266c0,24.877-19.403,35.341-39.083,35.341
	c-15.383,0-28.271-5.752-35.063-17.879l18.917-10.948c2.841,5.197,7.138,9.354,16.839,9.354c10.323,0,16.699-5.335,16.699-15.867
	v-6.79c-4.851,6.097-11.987,9.632-21.619,9.632c-20.997,0-36.381-17.187-36.381-37.56c0-20.441,15.384-37.558,36.381-37.558
	c9.632,0,16.699,3.534,21.619,9.632v-7.553h21.689L182.305,40.518L182.305,40.518z M160.684,75.997
	c0-10.187-7.414-17.186-17.877-17.186c-10.464,0-17.878,6.93-17.878,17.186c0,10.187,7.415,17.186,17.878,17.186
	C153.27,93.182,160.684,86.183,160.684,75.997z"/>
<path id="XMLID_71_" fill="#FFFFFF" d="M270.378,69.067v45.458h-22.175V72.323c0-9.146-5.751-13.442-12.89-13.442
	c-8.106,0-13.79,4.712-13.79,15.245v40.398h-22.173V40.518h22.173v6.93c4.021-5.475,11.365-9.008,21.137-9.008
	C257.628,38.439,270.378,49.041,270.378,69.067z"/>
<path id="XMLID_69_" display="none" fill="#FFFFFF" d="M8.016,137.289L56.176,9.301h6.999L15.014,137.289H8.016z"/>
<polyline id="XMLID_60_" fill="#FFFFFF" points="287.425,114.525 287.425,20.423 309.599,7.603 309.599,114.525 287.425,114.525 "/>
</svg>
