<?xml version="1.0" encoding="utf-8"?>
<!-- Generator: Adobe Illustrator 22.1.0, SVG Export Plug-In . SVG Version: 6.00 Build 0)  -->
<svg version="1.1" id="Layer_1" xmlns="http://www.w3.org/2000/svg" xmlns:xlink="http://www.w3.org/1999/xlink" x="0px" y="0px"
	 viewBox="0 0 75 75" style="enable-background:new 0 0 75 75;" xml:space="preserve">
<style type="text/css">
	.st0{fill:#684C9F;}
	.st1{fill:#1D1D1B;}
</style>
<g id="XMLID_14_">
	<polygon id="XMLID_73_" class="st0" points="5.1,70.2 29.4,5.1 32.9,5.1 8.6,70.2 	"/>
	<path id="XMLID_15_" class="st1" d="M69.4,12.2v54.4H58.3v-3.5c-2.5,2.9-6.1,4.6-11.1,4.6c-9.8,0-17.8-8.7-17.8-19.9
		c0-11.2,8-19.9,17.8-19.9c5,0,8.6,1.7,11.1,4.6l0-13.8L69.4,12.2z M58.3,47.8c0-5.7-3.7-9.2-8.9-9.2s-8.9,3.5-8.9,9.2
		c0,5.7,3.7,9.2,8.9,9.2S58.3,53.5,58.3,47.8z"/>
</g>
</svg>
