<?xml version="1.0" encoding="utf-8"?>
<!-- Generator: Adobe Illustrator 16.0.0, SVG Export Plug-In . SVG Version: 6.00 Build 0)  -->
<!DOCTYPE svg PUBLIC "-//W3C//DTD SVG 1.1//EN" "http://www.w3.org/Graphics/SVG/1.1/DTD/svg11.dtd">
<svg version="1.1" id="Layer_1" xmlns="http://www.w3.org/2000/svg" xmlns:xlink="http://www.w3.org/1999/xlink" x="0px" y="0px"
	 width="323.444px" height="152.141px" viewBox="0 0 323.444 152.141" enable-background="new 0 0 323.444 152.141"
	 xml:space="preserve">
<rect x="26.945" y="23.49" display="none" fill="#2B0707" stroke="#FFFFFF" stroke-miterlimit="10" width="788" height="567"/>
<path id="XMLID_73_" fill="#FFFFFF" d="M182.305,40.518v70.265c0,24.877-19.403,35.341-39.083,35.341
	c-15.383,0-28.271-5.752-35.063-17.879l18.917-10.948c2.841,5.197,7.138,9.354,16.839,9.354c10.324,0,16.7-5.335,16.7-15.868v-6.79
	c-4.851,6.097-11.988,9.632-21.62,9.632c-20.997,0-36.38-17.186-36.38-37.559c0-20.442,15.383-37.558,36.38-37.558
	c9.632,0,16.7,3.534,21.62,9.632v-7.553h21.689V40.518z M160.684,75.997c0-10.186-7.414-17.185-17.877-17.185
	c-10.464,0-17.878,6.929-17.878,17.185c0,10.187,7.415,17.186,17.878,17.186C153.27,93.182,160.684,86.183,160.684,75.997z"/>
<path id="XMLID_71_" fill="#FFFFFF" d="M270.378,69.067v45.458h-22.175V72.324c0-9.146-5.751-13.443-12.889-13.443
	c-8.107,0-13.79,4.712-13.79,15.245v40.399h-22.173V40.518h22.173v6.93c4.02-5.475,11.365-9.008,21.136-9.008
	C257.628,38.439,270.378,49.041,270.378,69.067z"/>
<path id="XMLID_69_" display="none" fill="#FFFFFF" d="M8.016,137.289L56.176,9.301h6.999L15.014,137.289H8.016z"/>
<path id="XMLID_65_" fill="#FFFFFF" d="M89.796,7.533v106.922H67.622v-6.93c-4.851,5.613-12.127,9.008-22.036,9.008
	c-19.403,0-35.341-17.046-35.341-39.081c0-22.037,16.007-39.083,35.341-39.083c9.909,0,17.185,3.396,22.036,9.008V20.353
	L89.796,7.533z M67.622,77.453c0-11.088-7.415-18.087-17.601-18.087c-10.187,0-17.601,6.93-17.601,18.087
	c0,11.087,7.415,18.085,17.601,18.085C60.207,95.538,67.622,88.609,67.622,77.453z"/>
<polyline id="XMLID_60_" fill="#FFFFFF" points="287.425,114.525 287.425,20.423 309.599,7.603 309.599,114.525 287.425,114.525 "/>
</svg>
